<?xml version="1.0" standalone="no"?><!DOCTYPE svg PUBLIC "-//W3C//DTD SVG 1.1//EN" "http://www.w3.org/Graphics/SVG/1.1/DTD/svg11.dtd"><svg t="1534732679793" class="icon" style="" viewBox="0 0 1025 1024" version="1.1" xmlns="http://www.w3.org/2000/svg" p-id="872" xmlns:xlink="http://www.w3.org/1999/xlink" width="200.1953125" height="200"><defs><style type="text/css"></style></defs><path d="M144.165718 689.433015c79.835771-29.217586 122.893266-43.570084 137.758354-48.695976a136.861322 136.861322 0 0 0 40.366401-17.940623 88.421641 88.421641 0 0 0 19.093948-15.249529v-2.562946a62.664032 62.664032 0 0 1-4.485155-20.119127 42.929347 42.929347 0 0 1 0-10.892521L320.368263 558.210175a117.639226 117.639226 0 0 1-28.833143-40.110107c-4.485156-10.508079-8.842164-20.503569-12.814731-31.39609v-7.816985A151.72641 151.72641 0 0 1 256.294611 454.026415a143.524982 143.524982 0 0 1-21.272453-46.645619 152.751588 152.751588 0 0 1-7.560691-64.073652 165.694466 165.694466 0 0 1 8.842164-38.444192 129.685073 129.685073 0 0 1 7.176249-17.428034 542.831985 542.831985 0 0 1 4.869598-69.583986 512.589221 512.589221 0 0 1 12.81473-70.609166h-8.842164a181.072142 181.072142 0 0 0-33.318299 3.459978 150.316789 150.316789 0 0 0-33.702741 9.995489 183.378794 183.378794 0 0 0-33.3183 20.503569 131.479135 131.479135 0 0 0-29.730175 33.190152 176.330692 176.330692 0 0 0-21.785042 48.439682 334.464467 334.464467 0 0 0-10.251784 51.258922 404.176601 404.176601 0 0 0-2.691093 56.641109 64.073653 64.073653 0 0 0-12.814731 33.190152 65.61142 65.61142 0 0 0 0 22.682073 68.430661 68.430661 0 0 0 8.842164 19.222096 79.451329 79.451329 0 0 0 8.842164 10.508079 37.54716 37.54716 0 0 0 10.251785 5.254039l6.663659 22.682073c2.691093 6.535513 4.869598 12.814731 7.945133 19.222096a43.570084 43.570084 0 0 0 10.892521 14.224351 230.66515 230.66515 0 0 1 21.272453 20.503569 39.213075 39.213075 0 0 1 10.636226 27.423523v20.503569a53.565574 53.565574 0 0 1-3.075535 18.709507 57.794435 57.794435 0 0 1-11.148816 17.812475 106.874853 106.874853 0 0 1-22.938367 18.06877 160.184132 160.184132 0 0 1-44.338968 19.222096c-11.533257 3.075535-51.258922 17.428034-78.554298 27.039081v185.044709h3.972566a331.645226 331.645226 0 0 1 4.869598-39.084928v-4.357008a150.957526 150.957526 0 0 1 51.258922-96.751216 242.710996 242.710996 0 0 1 78.554298-40.494548h5.766629z m811.685032-41.904169a112.641481 112.641481 0 0 1-30.114616-18.709506 66.380304 66.380304 0 0 1-15.890266-21.785042 69.968429 69.968429 0 0 1-5.382187-23.066515 89.703114 89.703114 0 0 1 5.382187-37.54716 38.444192 38.444192 0 0 1 7.048102-10.892521 47.030061 47.030061 0 0 1 10.251784-8.329575l11.533258-9.99549a43.570084 43.570084 0 0 0 9.611047-14.865088 140.193152 140.193152 0 0 0 7.945133-18.709506 119.305141 119.305141 0 0 1 6.151071-23.066515 38.444192 38.444192 0 0 0 13.711762-7.816986 57.794435 57.794435 0 0 0 9.739195-14.865087 76.888383 76.888383 0 0 0 6.66366-24.860577 75.991352 75.991352 0 0 0 0-19.99098 78.298004 78.298004 0 0 0-4.869598-12.814731 17.043592 17.043592 0 0 0-6.66366-9.098458 379.95676 379.95676 0 0 0-3.588124-59.332203 374.190132 374.190132 0 0 0-11.9177-53.565573 186.582477 186.582477 0 0 0-28.833143-51.258922 100.211193 100.211193 0 0 0-20.375422-20.503569 192.220958 192.220958 0 0 0-63.304769-32.677563 144.422013 144.422013 0 0 0-38.444191-5.25404h-17.812476a435.700838 435.700838 0 0 1 13.711762 65.867715 548.470467 548.470467 0 0 1 5.382187 66.252157 140.962036 140.962036 0 0 1 16.018413 43.570084 161.721899 161.721899 0 0 1 0 48.824123 188.889128 188.889128 0 0 1-14.608793 53.565574 128.147305 128.147305 0 0 1-34.21533 43.570084l-3.075536 9.611048v2.562946q-6.151071 15.633971-12.81473 31.39609a131.094693 131.094693 0 0 1-41.263433 53.181131v19.222096a53.309279 53.309279 0 0 1-5.766628 24.476135A101.236371 101.236371 0 0 0 743.254371 624.462331a293.072887 293.072887 0 0 0 44.338968 14.865088 320.368263 320.368263 0 0 1 44.338967 17.043591l44.338968 20.119127 25.629461 10.892521a240.019903 240.019903 0 0 1 61.254412 35.368657 158.902659 158.902659 0 0 1 46.773766 71.762491 257.576084 257.576084 0 0 1 9.739195 51.258922 78.810593 78.810593 0 0 1 2.691094 21.785042H1025.178443V677.643463a475.426503 475.426503 0 0 0-44.338968-17.428033 146.856812 146.856812 0 0 0-24.988725-12.686584z" fill="#A6C5F6" p-id="873"></path><path d="M974.944699 821.040298a95.854184 95.854184 0 0 0-29.217586-43.570084 208.367518 208.367518 0 0 0-47.030061-27.039081c-17.299886-6.919954-93.547533-43.570084-112.641481-46.64562a469.403579 469.403579 0 0 1-52.79669-17.812475 144.806455 144.806455 0 0 1-41.263432-25.629461 87.268315 87.268315 0 0 1-22.169484-30.114617 85.986842 85.986842 0 0 1-7.560691-31.39609 122.252529 122.252529 0 0 1 8.457722-52.2841 48.311534 48.311534 0 0 1 9.739195-14.865088 85.089811 85.089811 0 0 1 12.814731-11.276962 124.687328 124.687328 0 0 0 16.402855-13.968057 71.121754 71.121754 0 0 0 14.608793-19.47839c3.972566-8.714017 7.560691-17.428034 11.148815-25.629461a269.109341 269.109341 0 0 0 7.816986-32.164974 44.21082 44.21082 0 0 0 15.505824-11.276963 72.018786 72.018786 0 0 0 14.865087-20.631716 111.103714 111.103714 0 0 0 8.842164-33.959036 81.373539 81.373539 0 0 0 0-27.423523 74.709879 74.709879 0 0 0-6.15107-18.325065 24.091693 24.091693 0 0 0-9.354754-12.81473 499.774491 499.774491 0 0 0-4.869597-81.501687 386.748567 386.748567 0 0 0-16.915445-73.6847 233.868832 233.868832 0 0 0-35.881245-71.890638 142.115362 142.115362 0 0 0-28.448702-27.936113 205.035689 205.035689 0 0 0-38.444191-25.629461A318.317906 318.317906 0 0 0 593.96276 7.176762a198.243881 198.243881 0 0 0-53.309279-7.176249 274.87597 274.87597 0 0 0-44.338967 4.357008 197.34685 197.34685 0 0 0-44.338968 13.968056 206.060867 206.060867 0 0 0-91.881618 73.684701 227.717762 227.717762 0 0 0-29.217586 66.252157 514.511431 514.511431 0 0 0-15.121382 146.984959 76.888383 76.888383 0 0 0-11.533257 21.4006 110.462977 110.462977 0 0 0-7.048102 22.169484 78.169856 78.169856 0 0 0 3.588125 31.011648 79.963919 79.963919 0 0 0 11.533257 26.654639 115.332575 115.332575 0 0 0 12.814731 14.352498 41.007138 41.007138 0 0 0 13.711761 6.919955l9.739195 31.780531c3.075535 8.714017 6.66366 17.428034 10.251785 25.629462a59.588497 59.588497 0 0 0 12.81473 20.247274 372.908659 372.908659 0 0 1 29.217586 27.423523 57.409993 57.409993 0 0 1 15.121382 37.547161v28.833143a85.730547 85.730547 0 0 1-4.485156 25.629461 87.01202 87.01202 0 0 1-15.505824 24.476136 144.806455 144.806455 0 0 1-31.011647 25.629461A186.069887 186.069887 0 0 1 307.553533 701.222567c-22.81022 6.022923-119.433289 42.032316-140.962036 49.208566a175.049219 175.049219 0 0 0-54.590752 30.114616 94.444564 94.444564 0 0 0-28.833144 57.153699 226.308141 226.308141 0 0 0-3.972566 78.42615 82.783159 82.783159 0 0 0 15.505824 49.721155 196.065377 196.065377 0 0 0 50.105596 17.043591 2055.739072 2055.739072 0 0 0 404.048454 41.007138 1358.361436 1358.361436 0 0 0 393.412227-53.181132 67.661777 67.661777 0 0 0 27.551671-14.865087 96.494921 96.494921 0 0 0 10.508079-33.190152 309.219448 309.219448 0 0 0 3.075535-45.748588c0-15.633971 0-3.075535-2.178504-18.709507a192.220958 192.220958 0 0 0-7.304397-38.828633z" fill="#4E8CEE" p-id="874"></path></svg>